<?xml version="1.0" encoding="utf-8"?>
<!-- Generator: Adobe Illustrator 18.0.0, SVG Export Plug-In . SVG Version: 6.00 Build 0)  -->
<!DOCTYPE svg PUBLIC "-//W3C//DTD SVG 1.1//EN" "http://www.w3.org/Graphics/SVG/1.1/DTD/svg11.dtd">
<svg version="1.1" id="Layer_1" xmlns="http://www.w3.org/2000/svg" xmlns:xlink="http://www.w3.org/1999/xlink" x="0px" y="0px"
	 viewBox="0 0 653.6 78.6" enable-background="new 0 0 653.6 78.6" xml:space="preserve">
<g>
	<path fill="#FFFFFF" d="M61.9,19H39.8v45.1l6.9,1.3v7.7H20.1v-7.7l6.9-1.3V19H15.3l-0.5,7.2H4.9V9.1h57L61.9,19"/>
	<path fill="#FFFFFF" d="M55.6,65.4l6.2-1.3V13.6L55,12.3V6.6h19.6v25.1c1.5-2.2,3.3-3.9,5.5-5.1c2.2-1.2,4.6-1.8,7.2-1.8
		c5,0,8.9,1.6,11.7,4.9c2.8,3.3,4.2,8.4,4.2,15.3v19.2l6.2,1.3v7.7H84.9v-7.7l5.5-1.3V44.8c0-3.7-0.7-6.3-2-7.8
		c-1.3-1.5-3.2-2.3-5.8-2.3c-1.8,0-3.3,0.3-4.7,1c-1.3,0.6-2.5,1.6-3.4,2.7v25.8l5.5,1.3v7.7H55.6V65.4z"/>
	<path fill="#FFFFFF" d="M133.6,74c-6.9,0-12.3-2.2-16.4-6.6c-4.1-4.4-6.2-10-6.2-16.7V49c0-7.1,1.9-12.9,5.8-17.4
		c3.9-4.6,9.1-6.8,15.6-6.8c6.4,0,11.4,1.9,14.9,5.8c3.5,3.9,5.3,9.1,5.3,15.7v7h-28.4l-0.1,0.3c0.2,3.1,1.3,5.7,3.1,7.7
		c1.9,2,4.4,3,7.6,3c2.8,0,5.2-0.3,7.1-0.9c1.9-0.6,3.9-1.5,6.2-2.7l3.5,7.9c-2,1.6-4.5,2.9-7.6,3.9S137.4,74,133.6,74z M132.4,34.6
		c-2.4,0-4.2,0.9-5.6,2.7c-1.4,1.8-2.2,4.2-2.5,7.2l0.1,0.2h15.7v-1.1c0-2.7-0.6-4.9-1.9-6.5S135,34.6,132.4,34.6z"/>
	<path fill="#FFFFFF" d="M263.4,16.9l-5.3,0.7l-13,55.6h-11.9l-11.7-42.2h-0.3l-11.7,42.2h-11.9l-13.1-55.6l-5.2-0.7V9.1h23.6v7.7
		l-5.8,1l7.3,35.1l0.3,0l12-43.9h9.4L238.2,53l0.3,0l7.3-35.1l-5.8-1V9.1h23.5V16.9z"/>
	<path fill="#FFFFFF" d="M259.5,48.9c0-7.1,2-12.9,6-17.4s9.5-6.8,16.5-6.8c7,0,12.5,2.3,16.5,6.8c4,4.5,6,10.3,6,17.4v0.9
		c0,7.1-2,13-6,17.5S289,74,282,74c-7.1,0-12.6-2.2-16.5-6.7s-6-10.3-6-17.5V48.9z M272.3,49.8c0,4.3,0.8,7.8,2.3,10.4
		s4,3.9,7.4,3.9c3.3,0,5.7-1.3,7.3-4c1.5-2.6,2.3-6.1,2.3-10.4v-0.9c0-4.2-0.8-7.7-2.3-10.3c-1.6-2.7-4-4-7.3-4s-5.8,1.3-7.3,4
		c-1.5,2.7-2.3,6.1-2.3,10.3V49.8z"/>
	<path fill="#FFFFFF" d="M307.5,65.4l6.2-1.3V34.6l-6.8-1.3v-7.7h18.8l0.6,6.9c1.1-2.5,2.5-4.4,4.3-5.8c1.8-1.4,3.8-2.1,6.1-2.1
		c0.7,0,1.4,0.1,2.1,0.2c0.7,0.1,1.4,0.2,1.9,0.4l-1.4,11.7l-5.3-0.1c-1.9,0-3.4,0.4-4.7,1.1c-1.2,0.7-2.2,1.8-2.8,3.1v23.1l6.2,1.3
		v7.7h-25.1V65.4z"/>
	<path fill="#FFFFFF" d="M362.3,13.9v11.6h28.3v9h-28.3v24.2c0,1.8,0.4,3.2,1.1,4s1.8,1.2,3.1,1.2c0.9,0,1.6,0,2.3-0.1
		c0.7-0.1,1.4-0.2,2.2-0.4l1.1,9.3c-1.4,0.4-2.9,0.8-4.3,1s-2.9,0.3-4.6,0.3c-4.4,0-7.8-1.2-10.2-3.6c-2.4-2.4-3.6-6.3-3.6-11.6
		V34.6h-7v-9h7V13.9H362.3z"/>
	<path fill="#FFFFFF" d="M375.6,65.4l6.2-1.3V13.6l-6.9-1.3V4.6h19.6v27.1c1.5-2.2,3.3-3.9,5.5-5.1c2.2-1.2,4.6-1.8,7.2-1.8
		c5,0,8.9,1.6,11.7,4.9c2.8,3.3,4.2,8.4,4.2,15.3v19.2l6.2,1.3v7.7h-24.5v-7.7l5.5-1.3V44.8c0-3.7-0.7-6.3-2-7.8s-3.2-2.3-5.8-2.3
		c-1.8,0-3.3,0.3-4.7,1c-1.3,0.6-2.5,1.6-3.4,2.7v25.8l5.5,1.3v7.7h-24.5V65.4z"/>
	<path fill="#FFFFFF" d="M504.9,33.3l-14.8,0.6l-9.9,39.2h-10.7l-8.8-28.3h-0.3l-8.8,28.3h-10.7l-10-39.2l-4.8-0.6v-7.7h21.5v7.7
		l-5.1,1l4.5,21.8h0.3l8.9-30.5h8.6l9,30.5h0.3l4.4-21.8l-5.1-1v-7.7h31.5V33.3z"/>
	<path fill="#FFFFFF" d="M494.8,65.4l6.2-1.3V13.6l-6.9-1.3V4.6h19.6v27.1c1.5-2.2,3.3-3.9,5.5-5.1s4.6-1.8,7.2-1.8
		c5,0,8.9,1.6,11.7,4.9s4.2,8.4,4.2,15.3v19.2l6.2,1.3v7.7H524v-7.7l5.5-1.3V44.8c0-3.7-0.7-6.3-2-7.8s-3.2-2.3-5.8-2.3
		c-1.8,0-3.3,0.3-4.7,1c-1.3,0.6-2.5,1.6-3.4,2.7v25.8l5.5,1.3v7.7h-24.5V65.4z"/>
	<path fill="#FFFFFF" d="M551.8,65.4l6.2-1.3V34.6l-6.9-1.3v-7.7h19.7v38.5l6.2,1.3v7.7h-25.2V65.4z M570.8,14.2H558V4.6h12.8V14.2z
		"/>
	<path fill="#FFFFFF" d="M579.5,12.3V4.6h19.7v59.5l6.2,1.3v7.7h-25.2v-7.7l6.2-1.3V13.6L579.5,12.3z"/>
	<path fill="#FFFFFF" d="M629.6,74c-6.9,0-12.3-2.2-16.4-6.6s-6.2-10-6.2-16.7V49c0-7.1,1.9-12.9,5.8-17.4c3.9-4.6,9.1-6.8,15.6-6.8
		c6.4,0,11.4,1.9,14.9,5.8s5.3,9.1,5.3,15.7v7h-28.4l-0.1,0.3c0.2,3.1,1.3,5.7,3.1,7.7c1.9,2,4.4,3,7.6,3c2.8,0,5.2-0.3,7.1-0.9
		s3.9-1.5,6.2-2.7l3.5,7.9c-2,1.6-4.5,2.9-7.6,3.9C636.9,73.5,633.4,74,629.6,74z M628.4,34.6c-2.4,0-4.2,0.9-5.6,2.7
		c-1.4,1.8-2.2,4.2-2.5,7.2l0.1,0.2h15.7v-1.1c0-2.7-0.6-4.9-1.9-6.5C632.9,35.4,631,34.6,628.4,34.6z"/>
</g>
</svg>
